<svg xmlns="http://www.w3.org/2000/svg" version="1.1" xmlns:xlink="http://www.w3.org/1999/xlink" xmlns:svgjs="http://svgjs.dev/svgjs" width="1500" height="1500" viewBox="0 0 1500 1500"><rect width="1500" height="1500" fill="#ffffff"></rect><g transform="matrix(0.6666666666666666,0,0,0.6666666666666666,249.39393939393938,594.540591506687)"><svg viewBox="0 0 396 123" data-background-color="#ffffff" preserveAspectRatio="xMidYMid meet" height="465" width="1500" xmlns="http://www.w3.org/2000/svg" xmlns:xlink="http://www.w3.org/1999/xlink"><g id="tight-bounds" transform="matrix(1,0,0,1,0.2400000000000091,0.18228143444355283)"><svg viewBox="0 0 395.52 122.63543713111291" height="122.63543713111291" width="395.52"><g><svg viewBox="0 0 648.2589523858824 200.99999999999997" height="122.63543713111291" width="395.52"><g><rect width="8.381531209411765" height="200.99999999999997" x="249.58329882352942" y="0" fill="#4b91f1" opacity="1" stroke-width="0" stroke="transparent" fill-opacity="1" class="rect-qz-0" data-fill-palette-color="primary" rx="1%" id="qz-0" data-palette-color="#4b91f1"></rect></g><g transform="matrix(1,0,0,1,279.90601120941176,0.4999999999999858)"><svg viewBox="0 0 368.3529411764706 200" height="200" width="368.3529411764706"><g id="textblocktransform"><svg viewBox="0 0 368.3529411764706 200" height="200" width="368.3529411764706" id="textblock"><g><svg viewBox="0 0 368.3529411764706 200" height="200" width="368.3529411764706"><g transform="matrix(1,0,0,1,0,0)"><svg width="368.3529411764706" viewBox="5.2 -38.7 156.55 81.7" height="200" data-palette-color="#4b91f1"><svg></svg><svg></svg><g class="wordmark-text-0" data-fill-palette-color="primary" id="text-0"><path d="M5.2 0v-36.15h4.85v31.5h18.35v4.65zM43.75 0.5v0c-1.933 0-3.69-0.417-5.27-1.25-1.587-0.833-2.837-2.057-3.75-3.67-0.92-1.62-1.38-3.597-1.38-5.93v0c0-2.3 0.483-4.29 1.45-5.97 0.967-1.687 2.26-2.98 3.88-3.88 1.613-0.9 3.387-1.35 5.32-1.35v0c1.933 0 3.567 0.44 4.9 1.32 1.333 0.887 2.35 1.93 3.05 3.13v0l-0.3 0.8 0.45-4.4h4.3v20.7h-4.65v-5.4l0.5 1.2c-0.133 0.333-0.423 0.757-0.87 1.27-0.453 0.52-1.053 1.047-1.8 1.58-0.753 0.533-1.613 0.973-2.58 1.32-0.967 0.353-2.05 0.53-3.25 0.53zM45-3.35v0c1.167 0 2.217-0.217 3.15-0.65 0.933-0.433 1.71-1.043 2.33-1.83 0.613-0.78 1.037-1.72 1.27-2.82v0-4.05c-0.267-1-0.733-1.877-1.4-2.63-0.667-0.747-1.467-1.327-2.4-1.74-0.933-0.42-1.967-0.63-3.1-0.63v0c-1.233 0-2.367 0.3-3.4 0.9-1.033 0.6-1.857 1.433-2.47 2.5-0.62 1.067-0.93 2.317-0.93 3.75v0c0 1.333 0.317 2.55 0.95 3.65 0.633 1.1 1.483 1.967 2.55 2.6 1.067 0.633 2.217 0.95 3.45 0.95zM71 0.8v0c-1.867 0-3.407-0.577-4.62-1.73-1.22-1.147-1.863-2.637-1.93-4.47v0-15.3h4.65v13.65c0.067 1.133 0.393 2.05 0.98 2.75 0.58 0.7 1.503 1.067 2.77 1.1v0c1.167 0 2.21-0.343 3.13-1.03 0.913-0.68 1.653-1.613 2.22-2.8 0.567-1.18 0.85-2.52 0.85-4.02v0-9.65h4.65v20.7h-4.25l-0.4-5.1 0.25 0.9c-0.4 0.967-1.007 1.823-1.82 2.57-0.82 0.753-1.78 1.347-2.88 1.78-1.1 0.433-2.3 0.65-3.6 0.65zM91.75-20.7h4.15l0.4 5.05-0.2-0.8c0.667-1.533 1.75-2.76 3.25-3.68 1.5-0.913 3.233-1.37 5.2-1.37v0c1.967 0 3.577 0.573 4.83 1.72 1.247 1.153 1.887 2.647 1.92 4.48v0 15.3h-4.7v-13.65c-0.033-1.133-0.357-2.06-0.97-2.78-0.62-0.713-1.58-1.07-2.88-1.07v0c-1.2 0-2.283 0.333-3.25 1-0.967 0.667-1.723 1.583-2.27 2.75-0.553 1.167-0.83 2.517-0.83 4.05v0 9.7h-4.65zM133.8-4.85l2.4 2.95c-0.933 0.733-2.05 1.317-3.35 1.75-1.3 0.433-2.6 0.65-3.9 0.65v0c-2.267 0-4.25-0.45-5.95-1.35-1.7-0.9-3.023-2.16-3.97-3.78-0.953-1.613-1.43-3.52-1.43-5.72v0c0-2.2 0.51-4.117 1.53-5.75 1.013-1.633 2.347-2.893 4-3.78 1.647-0.88 3.42-1.32 5.32-1.32v0c1.667 0 3.16 0.233 4.48 0.7 1.313 0.467 2.437 1.1 3.37 1.9v0l-2.3 3c-0.6-0.467-1.333-0.883-2.2-1.25-0.867-0.367-1.85-0.55-2.95-0.55v0c-1.2 0-2.307 0.307-3.32 0.92-1.02 0.62-1.82 1.463-2.4 2.53-0.587 1.067-0.88 2.267-0.88 3.6v0c0 1.267 0.3 2.44 0.9 3.52 0.6 1.087 1.433 1.937 2.5 2.55 1.067 0.62 2.283 0.93 3.65 0.93v0c0.9 0 1.727-0.133 2.48-0.4 0.747-0.267 1.42-0.633 2.02-1.1zM146.85 0h-4.65v-38.7h4.55v22.8l-0.1-0.85c0.7-1.367 1.777-2.5 3.23-3.4 1.447-0.9 3.153-1.35 5.12-1.35v0c1.967 0 3.577 0.573 4.83 1.72 1.247 1.153 1.887 2.647 1.92 4.48v0 15.3h-4.7v-13.65c-0.033-1.133-0.357-2.06-0.97-2.78-0.62-0.713-1.58-1.07-2.88-1.07v0c-1.2 0-2.283 0.34-3.25 1.02-0.967 0.687-1.723 1.613-2.27 2.78-0.553 1.167-0.83 2.5-0.83 4v0z" fill="#4b91f1" fill-rule="nonzero" stroke="none" stroke-width="1" stroke-linecap="butt" stroke-linejoin="miter" stroke-miterlimit="10" stroke-dasharray="" stroke-dashoffset="0" font-family="none" font-weight="none" font-size="none" text-anchor="none" style="mix-blend-mode: normal" data-fill-palette-color="primary" opacity="1"></path><path transform="translate(0,42.5)" d="M5.2-36.15h9.65c2.633 0 4.883 0.44 6.75 1.32 1.867 0.887 3.31 2.163 4.33 3.83 1.013 1.667 1.52 3.683 1.52 6.05v0c0 1.433-0.217 2.84-0.65 4.22-0.433 1.387-1.123 2.637-2.07 3.75-0.953 1.12-2.197 2.013-3.73 2.68-1.533 0.667-3.4 1-5.6 1v0h-5.35v13.3h-4.85zM10.05-17.95h5.3c1.433 0 2.617-0.233 3.55-0.7 0.933-0.467 1.667-1.06 2.2-1.78 0.533-0.713 0.917-1.47 1.15-2.27 0.233-0.8 0.35-1.517 0.35-2.15v0c0-0.733-0.117-1.493-0.35-2.28-0.233-0.78-0.623-1.497-1.17-2.15-0.553-0.647-1.27-1.18-2.15-1.6-0.887-0.413-1.98-0.62-3.28-0.62v0h-5.6zM42.4 0.5v0c-1.933 0-3.69-0.417-5.27-1.25-1.587-0.833-2.837-2.057-3.75-3.67-0.92-1.62-1.38-3.597-1.38-5.93v0c0-2.3 0.483-4.29 1.45-5.97 0.967-1.687 2.26-2.98 3.88-3.88 1.613-0.9 3.387-1.35 5.32-1.35v0c1.933 0 3.567 0.44 4.9 1.32 1.333 0.887 2.35 1.93 3.05 3.13v0l-0.3 0.8 0.45-4.4h4.3v20.7h-4.65v-5.4l0.5 1.2c-0.133 0.333-0.423 0.757-0.87 1.27-0.453 0.52-1.053 1.047-1.8 1.58-0.753 0.533-1.613 0.973-2.58 1.32-0.967 0.353-2.05 0.53-3.25 0.53zM43.65-3.35v0c1.167 0 2.217-0.217 3.15-0.65 0.933-0.433 1.71-1.043 2.33-1.83 0.613-0.78 1.037-1.72 1.27-2.82v0-4.05c-0.267-1-0.733-1.877-1.4-2.63-0.667-0.747-1.467-1.327-2.4-1.74-0.933-0.42-1.967-0.63-3.1-0.63v0c-1.233 0-2.367 0.3-3.4 0.9-1.033 0.6-1.857 1.433-2.47 2.5-0.62 1.067-0.93 2.317-0.93 3.75v0c0 1.333 0.317 2.55 0.95 3.65 0.633 1.1 1.483 1.967 2.55 2.6 1.067 0.633 2.217 0.95 3.45 0.95zM71.5 0.5v0c-1.9 0-3.623-0.46-5.17-1.38-1.553-0.913-2.78-2.213-3.68-3.9-0.9-1.68-1.35-3.62-1.35-5.82v0c0-2.3 0.473-4.267 1.42-5.9 0.953-1.633 2.247-2.883 3.88-3.75 1.633-0.867 3.467-1.3 5.5-1.3v0c1.633 0 3.193 0.35 4.68 1.05 1.48 0.7 2.637 1.667 3.47 2.9v0l-0.2 1.65v-22.75h4.6v38.7h-4.65v-5.15l0.5 1.3c-0.967 1.267-2.217 2.307-3.75 3.12-1.533 0.82-3.283 1.23-5.25 1.23zM72.95-3.45v0c1.233 0 2.333-0.227 3.3-0.68 0.967-0.447 1.767-1.07 2.4-1.87 0.633-0.8 1.083-1.75 1.35-2.85v0-3.9c-0.267-1-0.74-1.877-1.42-2.63-0.687-0.747-1.503-1.347-2.45-1.8-0.953-0.447-2.013-0.67-3.18-0.67v0c-1.267 0-2.427 0.307-3.48 0.92-1.047 0.62-1.887 1.463-2.52 2.53-0.633 1.067-0.95 2.3-0.95 3.7v0c0 1.367 0.317 2.59 0.95 3.67 0.633 1.087 1.483 1.957 2.55 2.61 1.067 0.647 2.217 0.97 3.45 0.97z" fill="#4b91f1" fill-rule="nonzero" stroke="none" stroke-width="1" stroke-linecap="butt" stroke-linejoin="miter" stroke-miterlimit="10" stroke-dasharray="" stroke-dashoffset="0" font-family="none" font-weight="none" font-size="none" text-anchor="none" style="mix-blend-mode: normal" data-fill-palette-color="primary" opacity="1"></path></g></svg></g></svg></g></svg></g></svg></g><g transform="matrix(1,0,0,1,0,5.825376858017535)"><svg viewBox="0 0 227.64211764705883 189.3492462839649" height="189.3492462839649" width="227.64211764705883"><g><svg xmlns="http://www.w3.org/2000/svg" xmlns:xlink="http://www.w3.org/1999/xlink" version="1.1" x="0" y="0" viewBox="15.99 21.711 68.02000000000001 56.578" enable-background="new 0 0 100 100" xml:space="preserve" height="189.3492462839649" width="227.64211764705883" class="icon-icon-0" data-fill-palette-color="accent" id="icon-0"><g fill="#4b91f1" data-fill-palette-color="accent"><circle cx="74.939" cy="45.176" r="5.7" fill="#4b91f1" data-fill-palette-color="accent"></circle><path d="M65.621 72.211c-3.959 0-7.315 2.541-8.553 6.078h17.105C72.938 74.752 69.58 72.211 65.621 72.211z" fill="#4b91f1" data-fill-palette-color="accent"></path><circle cx="65.621" cy="65.135" r="5.7" fill="#4b91f1" data-fill-palette-color="accent"></circle><path d="M46.541 72.211c-3.959 0-7.315 2.541-8.554 6.078h17.106C53.857 74.752 50.5 72.211 46.541 72.211z" fill="#4b91f1" data-fill-palette-color="accent"></path><circle cx="46.541" cy="65.135" r="5.7" fill="#4b91f1" data-fill-palette-color="accent"></circle><circle cx="27.459" cy="65.136" r="5.7" fill="#4b91f1" data-fill-palette-color="accent"></circle><path d="M27.461 72.211c-3.96 0-7.316 2.541-8.554 6.078h17.105C34.776 74.752 31.42 72.211 27.461 72.211z" fill="#4b91f1" data-fill-palette-color="accent"></path><path d="M74.941 52.25c-3.961 0-7.322 2.545-8.557 6.086 3.332 0.078 6.014 2.746 6.119 6.07H84.01v-3.087C84.01 56.311 79.949 52.25 74.941 52.25z" fill="#4b91f1" data-fill-palette-color="accent"></path><polygon points="20.018,64.423 18.919,64.423 18.919,24.64 75.422,24.64 75.422,37.819 78.35,37.819 78.35,21.711 15.99,21.711    15.99,67.352 20.018,67.352  " fill="#4b91f1" data-fill-palette-color="accent"></polygon><rect x="34.219" y="64.406" width="5.563" height="2.945" fill="#4b91f1" data-fill-palette-color="accent"></rect><rect x="53.301" y="64.406" width="5.563" height="2.945" fill="#4b91f1" data-fill-palette-color="accent"></rect><rect x="25.281" y="43.767" width="5" height="5.833" fill="#4b91f1" data-fill-palette-color="accent"></rect><rect x="33.281" y="39.516" width="5" height="10.083" fill="#4b91f1" data-fill-palette-color="accent"></rect><rect x="41.281" y="45.964" width="5" height="3.635" fill="#4b91f1" data-fill-palette-color="accent"></rect><rect x="49.281" y="29.433" width="5" height="20.167" fill="#4b91f1" data-fill-palette-color="accent"></rect></g></svg></g></svg></g></svg></g><defs></defs></svg><rect width="395.52" height="122.63543713111291" fill="none" stroke="none" visibility="hidden"></rect></g></svg></g></svg>