<svg xmlns="http://www.w3.org/2000/svg" version="1.1" xmlns:xlink="http://www.w3.org/1999/xlink" xmlns:svgjs="http://svgjs.dev/svgjs" width="1500" height="236" viewBox="0 0 1500 236"><g transform="matrix(1,0,0,1,0.887026110312604,0.5578207135275619)"><svg viewBox="0 0 394 62" data-background-color="#fdfdfd" preserveAspectRatio="xMidYMid meet" height="236" width="1500" xmlns="http://www.w3.org/2000/svg" xmlns:xlink="http://www.w3.org/1999/xlink"><g id="tight-bounds" transform="matrix(1,0,0,1,-0.23299219164209717,-0.14645388034446682)"><svg viewBox="0 0 394.4659843832842 62.29299999999999" height="62.29299999999999" width="394.4659843832842"><g><svg viewBox="0 0 394.4659843832842 62.29299999999999" height="62.29299999999999" width="394.4659843832842"><g><svg viewBox="0 0 394.4659843832842 62.29299999999999" height="62.29299999999999" width="394.4659843832842"><g id="textblocktransform"><svg viewBox="0 0 394.4659843832842 62.29299999999999" height="62.29299999999999" width="394.4659843832842" id="textblock"><g><svg viewBox="0 0 394.4659843832842 62.29299999999999" height="62.29299999999999" width="394.4659843832842"><g><svg><g></g><g></g></svg></g><g><svg><g><svg></svg></g><g></g></svg></g><g id="text-0"><svg viewBox="0 0 394.4659843832842 62.29299999999999" height="62.29299999999999" width="394.4659843832842"><g transform="matrix(1,0,0,1,0,11.896499999999996)"><svg width="198.45000000000002" viewBox="3.8 -38.15 198.42999999999998 38.5" height="38.5" data-palette-color="#3d4335"><path d="M5.45 0L5.45 0Q4.8 0 4.3-0.33 3.8-0.65 3.8-1.3L3.8-1.3 3.8-35.35Q3.8-35.85 4.17-36.18 4.55-36.5 5.2-36.55L5.2-36.55 14.4-36.55Q17.3-36.55 19.65-35.5 22-34.45 23.35-32.13 24.7-29.8 24.7-25.95L24.7-25.95 24.7-25.45Q24.7-21.55 23.33-19.23 21.95-16.9 19.58-15.85 17.2-14.8 14.3-14.8L14.3-14.8 7.1-14.8 7.1-1.3Q7.1-0.65 6.58-0.33 6.05 0 5.45 0ZM7.1-33.5L7.1-17.65 14.3-17.65Q17.65-17.65 19.53-19.53 21.4-21.4 21.4-25.3L21.4-25.3 21.4-25.9Q21.4-29.8 19.53-31.65 17.65-33.5 14.3-33.5L14.3-33.5 7.1-33.5ZM31.5 0L31.5 0Q30.85 0 30.37-0.4 29.9-0.8 29.9-1.3L29.9-1.3 29.9-36.95Q29.9-37.5 30.37-37.83 30.85-38.15 31.5-38.15L31.5-38.15Q32.2-38.15 32.67-37.83 33.15-37.5 33.15-36.95L33.15-36.95 33.15-1.3Q33.15-0.8 32.67-0.4 32.2 0 31.5 0ZM45.1 0.35L45.1 0.35Q42.3 0.35 40.3-1.28 38.3-2.9 38.3-6.25L38.3-6.25Q38.3-9 39.77-10.48 41.25-11.95 43.87-12.53 46.5-13.1 49.95-13.1L49.95-13.1 52.5-13.1 52.5-14.3Q52.5-15.9 51.92-17.48 51.35-19.05 50.07-20.08 48.8-21.1 46.6-21.1L46.6-21.1Q44.95-21.1 43.9-20.75 42.85-20.4 42.25-20.03 41.65-19.65 41.25-19.65L41.25-19.65Q40.65-19.65 40.3-20.25 39.95-20.85 39.95-21.4L39.95-21.4Q39.95-22.05 40.97-22.63 42-23.2 43.57-23.58 45.15-23.95 46.7-23.95L46.7-23.95Q50.05-23.95 52.02-22.58 54-21.2 54.87-19 55.75-16.8 55.75-14.3L55.75-14.3 55.75-1.3Q55.75-0.75 55.32-0.38 54.9 0 54.15 0L54.15 0Q53.55 0 53.1-0.38 52.65-0.75 52.65-1.3L52.65-1.3 52.65-3.5Q51.35-2.05 49.5-0.85 47.65 0.35 45.1 0.35ZM45.9-2.4L45.9-2.4Q47.55-2.4 49.05-3.25 50.55-4.1 51.52-5.33 52.5-6.55 52.5-7.65L52.5-7.65 52.5-10.85 50.4-10.85Q48.15-10.85 46.12-10.58 44.1-10.3 42.82-9.4 41.55-8.5 41.55-6.55L41.55-6.55Q41.55-4.4 42.82-3.4 44.1-2.4 45.9-2.4ZM70.64 0.35L70.64 0.35Q67.34 0.35 65.19-0.9 63.04-2.15 61.99-4.3 60.94-6.45 60.94-9.15L60.94-9.15 60.94-14.5Q60.94-17.15 61.97-19.3 62.99-21.45 65.17-22.7 67.34-23.95 70.64-23.95L70.64-23.95Q72.74-23.95 74.32-23.43 75.89-22.9 76.77-22.15 77.64-21.4 77.64-20.7L77.64-20.7Q77.64-20.4 77.47-20.03 77.29-19.65 76.97-19.38 76.64-19.1 76.24-19.1L76.24-19.1Q75.79-19.1 75.22-19.58 74.64-20.05 73.64-20.5 72.64-20.95 70.79-20.95L70.79-20.95Q67.54-20.95 65.87-19.23 64.19-17.5 64.19-14.5L64.19-14.5 64.19-9.15Q64.19-6.1 65.87-4.38 67.54-2.65 70.84-2.65L70.84-2.65Q72.74-2.65 73.79-3.13 74.84-3.6 75.42-4.08 75.99-4.55 76.49-4.55L76.49-4.55Q76.94-4.55 77.27-4.3 77.59-4.05 77.77-3.7 77.94-3.35 77.94-2.95L77.94-2.95Q77.94-2.3 77.04-1.53 76.14-0.75 74.52-0.2 72.89 0.35 70.64 0.35ZM91.94 0.35L91.94 0.35Q88.79 0.35 86.37-0.85 83.94-2.05 82.57-4.17 81.19-6.3 81.19-9.15L81.19-9.15 81.19-14.75Q81.19-17.25 82.49-19.35 83.79-21.45 85.97-22.7 88.14-23.95 90.74-23.95L90.74-23.95Q93.24-23.95 95.37-22.78 97.49-21.6 98.79-19.55 100.09-17.5 100.09-14.85L100.09-14.85Q100.09-12.9 99.44-12.08 98.79-11.25 97.82-11.05 96.84-10.85 95.74-10.85L95.74-10.85 84.44-10.85 84.44-9Q84.44-6 86.59-4.25 88.74-2.5 92.04-2.5L92.04-2.5Q94.04-2.5 95.14-3 96.24-3.5 96.87-4 97.49-4.5 98.04-4.5L98.04-4.5Q98.44-4.5 98.77-4.23 99.09-3.95 99.27-3.6 99.44-3.25 99.44-2.95L99.44-2.95Q99.44-2.4 98.54-1.6 97.64-0.8 95.94-0.23 94.24 0.35 91.94 0.35ZM84.44-15.15L84.44-13.25 94.44-13.25Q95.94-13.25 96.44-13.58 96.94-13.9 96.94-14.95L96.94-14.95Q96.94-16.55 96.17-18 95.39-19.45 93.97-20.35 92.54-21.25 90.69-21.25L90.69-21.25Q88.99-21.25 87.57-20.43 86.14-19.6 85.29-18.23 84.44-16.85 84.44-15.15L84.44-15.15ZM106.54 0L106.54 0Q105.89 0 105.41-0.4 104.94-0.8 104.94-1.3L104.94-1.3 104.94-22.45Q104.94-23 105.41-23.33 105.89-23.65 106.54-23.65L106.54-23.65Q107.19-23.65 107.64-23.33 108.09-23 108.09-22.45L108.09-22.45 108.09-20.15Q108.94-21.6 110.61-22.78 112.29-23.95 114.74-23.95L114.74-23.95Q117.24-23.95 119.09-22.55 120.94-21.15 121.84-18.95L121.84-18.95Q123.14-21.5 125.21-22.73 127.29-23.95 129.44-23.95L129.44-23.95Q131.59-23.95 133.51-22.85 135.44-21.75 136.64-19.68 137.84-17.6 137.84-14.6L137.84-14.6 137.84-1.3Q137.84-0.8 137.36-0.4 136.89 0 136.19 0L136.19 0Q135.54 0 135.06-0.4 134.59-0.8 134.59-1.3L134.59-1.3 134.59-14.6Q134.59-16.7 133.74-18.1 132.89-19.5 131.59-20.23 130.29-20.95 128.89-20.95L128.89-20.95Q127.44-20.95 126.11-20.2 124.79-19.45 123.91-18.07 123.04-16.7 123.04-14.8L123.04-14.8 123.04-1.25Q123.04-0.6 122.51-0.3 121.99 0 121.39 0L121.39 0Q120.84 0 120.31-0.3 119.79-0.6 119.79-1.25L119.79-1.25 119.79-14.75Q119.79-16.55 119.01-17.95 118.24-19.35 116.94-20.15 115.64-20.95 114.09-20.95L114.09-20.95Q112.64-20.95 111.29-20.2 109.94-19.45 109.06-18.05 108.19-16.65 108.19-14.6L108.19-14.6 108.19-1.3Q108.19-0.8 107.71-0.4 107.24 0 106.54 0ZM153.79 0.35L153.79 0.35Q150.64 0.35 148.21-0.85 145.79-2.05 144.41-4.17 143.04-6.3 143.04-9.15L143.04-9.15 143.04-14.75Q143.04-17.25 144.34-19.35 145.64-21.45 147.81-22.7 149.99-23.95 152.59-23.95L152.59-23.95Q155.09-23.95 157.21-22.78 159.34-21.6 160.64-19.55 161.94-17.5 161.94-14.85L161.94-14.85Q161.94-12.9 161.29-12.08 160.64-11.25 159.66-11.05 158.69-10.85 157.59-10.85L157.59-10.85 146.29-10.85 146.29-9Q146.29-6 148.44-4.25 150.59-2.5 153.89-2.5L153.89-2.5Q155.89-2.5 156.99-3 158.09-3.5 158.71-4 159.34-4.5 159.89-4.5L159.89-4.5Q160.29-4.5 160.61-4.23 160.94-3.95 161.11-3.6 161.29-3.25 161.29-2.95L161.29-2.95Q161.29-2.4 160.39-1.6 159.49-0.8 157.79-0.23 156.09 0.35 153.79 0.35ZM146.29-15.15L146.29-13.25 156.29-13.25Q157.79-13.25 158.29-13.58 158.79-13.9 158.79-14.95L158.79-14.95Q158.79-16.55 158.01-18 157.24-19.45 155.81-20.35 154.39-21.25 152.54-21.25L152.54-21.25Q150.84-21.25 149.41-20.43 147.99-19.6 147.14-18.23 146.29-16.85 146.29-15.15L146.29-15.15ZM168.38 0L168.38 0Q167.73 0 167.26-0.4 166.78-0.8 166.78-1.3L166.78-1.3 166.78-22.45Q166.78-23 167.26-23.33 167.73-23.65 168.38-23.65L168.38-23.65Q169.03-23.65 169.48-23.33 169.93-23 169.93-22.45L169.93-22.45 169.93-20.15Q170.73-21.6 172.43-22.78 174.13-23.95 176.63-23.95L176.63-23.95Q179.03-23.95 181.06-22.68 183.08-21.4 184.28-19.3 185.48-17.2 185.48-14.6L185.48-14.6 185.48-1.3Q185.48-0.65 184.98-0.33 184.48 0 183.83 0L183.83 0Q183.28 0 182.76-0.33 182.23-0.65 182.23-1.3L182.23-1.3 182.23-14.6Q182.23-16.2 181.38-17.65 180.53-19.1 179.13-20.03 177.73-20.95 176.03-20.95L176.03-20.95Q174.53-20.95 173.16-20.18 171.78-19.4 170.91-18 170.03-16.6 170.03-14.6L170.03-14.6 170.03-1.3Q170.03-0.8 169.56-0.4 169.08 0 168.38 0ZM200.73 0L199.33 0Q195.48 0 193.43-1.75 191.38-3.5 191.38-7.35L191.38-7.35 191.38-33.7Q191.38-34.25 191.91-34.58 192.43-34.9 192.98-34.9L192.98-34.9Q193.63-34.9 194.13-34.58 194.63-34.25 194.63-33.7L194.63-33.7 194.63-23.65 201.13-23.65Q201.63-23.65 201.93-23.25 202.23-22.85 202.23-22.3L202.23-22.3Q202.23-21.75 201.93-21.35 201.63-20.95 201.13-20.95L201.13-20.95 194.63-20.95 194.63-7.35Q194.63-4.9 195.68-3.93 196.73-2.95 199.33-2.95L199.33-2.95 200.73-2.95Q201.43-2.95 201.81-2.53 202.18-2.1 202.18-1.5L202.18-1.5Q202.18-0.9 201.81-0.45 201.43 0 200.73 0L200.73 0Z" opacity="1" transform="matrix(1,0,0,1,0,0)" fill="#3d4335" class="undefined-yy-0"></path></svg></g><g><svg xmlns:dc="http://purl.org/dc/elements/1.1/" xmlns:cc="http://creativecommons.org/ns#" xmlns:rdf="http://www.w3.org/1999/02/22-rdf-syntax-ns#" xmlns:svg="http://www.w3.org/2000/svg" xmlns="http://www.w3.org/2000/svg" xmlns:sodipodi="http://sodipodi.sourceforge.net/DTD/sodipodi-0.dtd" xmlns:inkscape="http://www.inkscape.org/namespaces/inkscape" version="1.0" viewBox="4.584852699999999 9.3011309 87.84724929999999 88.40215309999999" xml:space="preserve" x="213.157" y="0" height="62.29299999999999" width="61.901984383284194" class="icon-cg-0" data-fill-palette-color="accent" id="cg-0"><path d="M4.753 33.648l24.195 0 0-24.195-24.195 0m22.164 22.001l-20.224 0 0-19.79 20.224 0z" fill="#0674f7" fill-opacity="0.99470903" fill-rule="nonzero" stroke="none" data-fill-palette-color="accent"></path><path d="M4.659 65.626l24.194 0 0-24.194-24.194 0z" fill="#0674f7" fill-opacity="0.99470903" fill-rule="nonzero" stroke="none" data-fill-palette-color="accent"></path><path d="M4.659 97.529l24.194 0 0-24.195-24.194 0z" fill="#0674f7" fill-opacity="0.99470903" fill-rule="nonzero" stroke="none" data-fill-palette-color="accent"></path><path d="M68.204 33.496l24.195 0 0-24.195-24.195 0z" fill="#0674f7" fill-opacity="0.99470903" fill-rule="nonzero" stroke="none" data-fill-palette-color="accent"></path><path d="M68.11 65.474l24.195 0 0-24.195-24.195 0z" fill="#0674f7" fill-opacity="0.99470903" fill-rule="nonzero" stroke="none" data-fill-palette-color="accent"></path><path d="M68.11 97.377l24.195 0 0-24.195-24.195 0z" fill="#0674f7" fill-opacity="0.99470903" fill-rule="nonzero" stroke="none" data-fill-palette-color="accent"></path><path d="M36.432 33.72l24.195 0 0-24.194-24.195 0m22.165 22.001l-20.225 0 0-19.791 20.225 0z" fill="#0674f7" fill-opacity="0.99470903" fill-rule="nonzero" stroke="none" data-fill-palette-color="accent"></path><path d="M68.237 33.521l24.195 0 0-24.195-24.195 0m22.165 22.001l-20.225 0 0-19.79 20.225 0z" fill="#0674f7" fill-opacity="0.99470903" fill-rule="nonzero" stroke="none" data-fill-palette-color="accent"></path><path d="M68.093 65.394l24.195 0 0-24.195-24.195 0m22.165 22.001l-20.225 0 0-19.79 20.225 0z" fill="#0674f7" fill-opacity="0.99470903" fill-rule="nonzero" stroke="none" data-fill-palette-color="accent"></path><path d="M36.314 65.699l24.194 0 0-24.195-24.194 0m22.164 22.001l-20.225 0 0-19.79 20.225 0z" fill="#0674f7" fill-opacity="0.99470903" fill-rule="nonzero" stroke="none" data-fill-palette-color="accent"></path><path d="M4.64 65.593l24.195 0 0-24.195-24.195 0m22.164 22.001l-20.224 0 0-19.79 20.224 0z" fill="#0674f7" fill-opacity="0.99470903" fill-rule="nonzero" stroke="none" data-fill-palette-color="accent"></path><path d="M4.585 97.504l24.195 0 0-24.195-24.195 0m22.164 22.001l-20.224 0 0-19.79 20.224 0z" fill="#0674f7" fill-opacity="0.99470903" fill-rule="nonzero" stroke="none" data-fill-palette-color="accent"></path><path d="M36.326 97.703l24.195 0 0-24.194-24.195 0m22.165 22.001l-20.225 0 0-19.791 20.225 0z" fill="#0674f7" fill-opacity="0.99470903" fill-rule="nonzero" stroke="none" data-fill-palette-color="accent"></path><path d="M68.081 97.373l24.194 0 0-24.195-24.194 0m22.164 22.001l-20.225 0 0-19.79 20.225 0z" fill="#0674f7" fill-opacity="0.99470903" fill-rule="nonzero" stroke="none" data-fill-palette-color="accent"></path><path d="M4.636 33.799l24.195 0 0-24.195-24.195 0z" fill="#0674f7" fill-opacity="0.99470903" fill-rule="nonzero" stroke="none" data-fill-palette-color="accent"></path></svg></g><g transform="matrix(1,0,0,1,289.7659843832842,11.896499999999996)"><svg width="104.7" viewBox="3.8 -38.15 104.69 38.5" height="38.5" data-palette-color="#3d4335"><path d="M5.45 0L5.45 0Q4.8 0 4.3-0.33 3.8-0.65 3.8-1.3L3.8-1.3 3.8-35.35Q3.8-35.85 4.17-36.18 4.55-36.5 5.2-36.55L5.2-36.55 14.4-36.55Q17.3-36.55 19.65-35.5 22-34.45 23.35-32.13 24.7-29.8 24.7-25.95L24.7-25.95 24.7-25.45Q24.7-21.55 23.33-19.23 21.95-16.9 19.58-15.85 17.2-14.8 14.3-14.8L14.3-14.8 7.1-14.8 7.1-1.3Q7.1-0.65 6.58-0.33 6.05 0 5.45 0ZM7.1-33.5L7.1-17.65 14.3-17.65Q17.65-17.65 19.53-19.53 21.4-21.4 21.4-25.3L21.4-25.3 21.4-25.9Q21.4-29.8 19.53-31.65 17.65-33.5 14.3-33.5L14.3-33.5 7.1-33.5ZM36.8 0.35L36.8 0.35Q34.25 0.35 32.1-0.98 29.95-2.3 28.62-4.48 27.3-6.65 27.3-9.15L27.3-9.15 27.3-14.6Q27.3-17.1 28.6-19.23 29.9-21.35 32.05-22.65 34.2-23.95 36.8-23.95L36.8-23.95Q39.35-23.95 41.52-22.68 43.7-21.4 45-19.3 46.3-17.2 46.3-14.6L46.3-14.6 46.3-9.15Q46.3-6.7 45-4.5 43.7-2.3 41.52-0.98 39.35 0.35 36.8 0.35ZM36.8-2.65L36.8-2.65Q38.55-2.65 39.95-3.58 41.35-4.5 42.2-6 43.05-7.5 43.05-9.15L43.05-9.15 43.05-14.6Q43.05-16.2 42.22-17.65 41.4-19.1 39.97-20.03 38.55-20.95 36.8-20.95L36.8-20.95Q35.05-20.95 33.65-20.03 32.25-19.1 31.4-17.65 30.55-16.2 30.55-14.6L30.55-14.6 30.55-9.15Q30.55-7.5 31.4-6 32.25-4.5 33.67-3.58 35.1-2.65 36.8-2.65ZM53.25 0L53.25 0Q52.59 0 52.12-0.4 51.65-0.8 51.65-1.3L51.65-1.3 51.65-22.45Q51.65-23 52.12-23.33 52.59-23.65 53.25-23.65L53.25-23.65Q53.9-23.65 54.34-23.33 54.8-23 54.8-22.45L54.8-22.45 54.8-20Q55.34-21 56.3-21.9 57.25-22.8 58.55-23.38 59.84-23.95 61.5-23.95L61.5-23.95 63.25-23.95Q63.8-23.95 64.17-23.53 64.55-23.1 64.55-22.45L64.55-22.45Q64.55-21.85 64.17-21.4 63.8-20.95 63.25-20.95L63.25-20.95 61.5-20.95Q59.84-20.95 58.32-20.08 56.8-19.2 55.84-17.57 54.9-15.95 54.9-13.65L54.9-13.65 54.9-1.3Q54.9-0.8 54.42-0.4 53.95 0 53.25 0ZM77.39 0L75.99 0Q72.14 0 70.09-1.75 68.04-3.5 68.04-7.35L68.04-7.35 68.04-33.7Q68.04-34.25 68.57-34.58 69.09-34.9 69.64-34.9L69.64-34.9Q70.29-34.9 70.79-34.58 71.29-34.25 71.29-33.7L71.29-33.7 71.29-23.65 77.79-23.65Q78.29-23.65 78.59-23.25 78.89-22.85 78.89-22.3L78.89-22.3Q78.89-21.75 78.59-21.35 78.29-20.95 77.79-20.95L77.79-20.95 71.29-20.95 71.29-7.35Q71.29-4.9 72.34-3.93 73.39-2.95 75.99-2.95L75.99-2.95 77.39-2.95Q78.09-2.95 78.47-2.53 78.84-2.1 78.84-1.5L78.84-1.5Q78.84-0.9 78.47-0.45 78.09 0 77.39 0L77.39 0ZM88.14 0.35L88.14 0.35Q85.34 0.35 83.34-1.28 81.34-2.9 81.34-6.25L81.34-6.25Q81.34-9 82.82-10.48 84.29-11.95 86.92-12.53 89.54-13.1 92.99-13.1L92.99-13.1 95.54-13.1 95.54-14.3Q95.54-15.9 94.97-17.48 94.39-19.05 93.12-20.08 91.84-21.1 89.64-21.1L89.64-21.1Q87.99-21.1 86.94-20.75 85.89-20.4 85.29-20.03 84.69-19.65 84.29-19.65L84.29-19.65Q83.69-19.65 83.34-20.25 82.99-20.85 82.99-21.4L82.99-21.4Q82.99-22.05 84.02-22.63 85.04-23.2 86.62-23.58 88.19-23.95 89.74-23.95L89.74-23.95Q93.09-23.95 95.07-22.58 97.04-21.2 97.92-19 98.79-16.8 98.79-14.3L98.79-14.3 98.79-1.3Q98.79-0.75 98.37-0.38 97.94 0 97.19 0L97.19 0Q96.59 0 96.14-0.38 95.69-0.75 95.69-1.3L95.69-1.3 95.69-3.5Q94.39-2.05 92.54-0.85 90.69 0.35 88.14 0.35ZM88.94-2.4L88.94-2.4Q90.59-2.4 92.09-3.25 93.59-4.1 94.57-5.33 95.54-6.55 95.54-7.65L95.54-7.65 95.54-10.85 93.44-10.85Q91.19-10.85 89.17-10.58 87.14-10.3 85.87-9.4 84.59-8.5 84.59-6.55L84.59-6.55Q84.59-4.4 85.87-3.4 87.14-2.4 88.94-2.4ZM106.84 0L106.84 0Q106.19 0 105.71-0.4 105.24-0.8 105.24-1.3L105.24-1.3 105.24-36.95Q105.24-37.5 105.71-37.83 106.19-38.15 106.84-38.15L106.84-38.15Q107.54-38.15 108.01-37.83 108.49-37.5 108.49-36.95L108.49-36.95 108.49-1.3Q108.49-0.8 108.01-0.4 107.54 0 106.84 0Z" opacity="1" transform="matrix(1,0,0,1,0,0)" fill="#3d4335" class="undefined-yy-1"></path></svg></g></svg></g></svg></g></svg></g></svg></g><g></g></svg></g><defs></defs></svg><rect width="394.4659843832842" height="62.29299999999999" fill="none" stroke="none" visibility="hidden"></rect></g></svg></g></svg>